<?xml version="1.0" standalone="no"?>
<!DOCTYPE svg PUBLIC "-//W3C//DTD SVG 20010904//EN"
 "http://www.w3.org/TR/2001/REC-SVG-20010904/DTD/svg10.dtd">
<svg version="1.0" xmlns="http://www.w3.org/2000/svg"
 width="500.000000pt" height="500.000000pt" viewBox="0 0 500.000000 500.000000"
 preserveAspectRatio="xMidYMid meet">
<metadata>
Created by potrace 1.11, written by Peter Selinger 2001-2013
</metadata>
<g transform="translate(0.000000,500.000000) scale(0.100000,-0.100000)"
fill="#000000" stroke="none">
<path d="M3085 3718 c-24 -12 -167 -149 -350 -336 -181 -183 -323 -321 -342
-328 -26 -11 -145 -14 -593 -14 -448 0 -567 -3 -593 -14 -44 -18 -95 -78 -103
-121 -15 -81 18 -140 111 -200 55 -35 68 -57 79 -140 3 -22 28 -179 56 -350
28 -170 59 -366 71 -435 11 -69 27 -150 35 -180 36 -126 105 -217 201 -266
l58 -29 760 0 760 0 56 28 c71 34 132 100 171 183 31 66 75 287 134 674 46
301 74 454 89 477 9 13 33 32 54 42 80 41 124 128 102 201 -15 50 -51 93 -96
115 -32 14 -82 17 -408 19 -205 1 -378 5 -384 9 -7 5 -13 16 -13 25 0 9 78 95
174 192 105 105 183 193 196 219 43 86 9 186 -80 231 -50 25 -94 25 -145 -2z
m-864 -1232 c72 -48 79 -76 79 -310 0 -217 -4 -243 -48 -289 -71 -75 -173 -77
-238 -5 -50 55 -54 74 -54 288 0 251 12 288 105 332 51 24 103 18 156 -16z
m683 3 c18 -12 44 -38 57 -57 23 -34 24 -42 27 -248 3 -198 2 -215 -17 -253
-27 -51 -80 -91 -130 -98 -54 -7 -84 2 -126 39 -66 58 -69 69 -67 298 0 125 5
217 12 235 38 99 160 142 244 84z"/>
</g>
</svg>
