<?xml version="1.0" standalone="no"?>
<!DOCTYPE svg PUBLIC "-//W3C//DTD SVG 20010904//EN"
 "http://www.w3.org/TR/2001/REC-SVG-20010904/DTD/svg10.dtd">
<svg version="1.0" xmlns="http://www.w3.org/2000/svg"
 width="502.000000pt" height="400.000000pt" viewBox="0 0 502.000000 400.000000"
 preserveAspectRatio="xMidYMid meet">
<metadata>
Created by potrace 1.11, written by Peter Selinger 2001-2013
</metadata>
<g transform="translate(0.000000,400.000000) scale(0.100000,-0.100000)"
fill="#000000" stroke="none">
<path d="M2195 3376 c-72 -23 -127 -57 -196 -121 -78 -74 -107 -85 -164 -63
-22 9 -71 29 -110 44 -65 26 -80 27 -220 28 -137 0 -157 -3 -235 -28 -268 -87
-438 -290 -522 -623 -21 -80 -23 -111 -22 -348 0 -235 2 -268 22 -340 43 -157
104 -251 193 -300 45 -24 66 -29 124 -30 94 0 151 23 210 86 112 120 125 250
65 669 -51 360 -31 490 95 609 59 55 163 111 208 111 17 0 38 -10 53 -26 37
-36 26 -63 -56 -151 -38 -41 -82 -100 -97 -131 -24 -49 -28 -68 -27 -142 0
-84 2 -89 113 -375 61 -159 126 -325 143 -368 17 -44 51 -107 76 -140 24 -34
281 -299 571 -589 595 -597 578 -583 721 -583 65 0 85 5 140 32 58 28 116 83
515 485 506 508 505 508 513 640 6 102 -8 150 -68 229 -27 35 -282 296 -567
580 -380 379 -533 524 -573 547 -55 31 -689 280 -765 301 -51 14 -89 13 -140
-3z m-1027 -475 c2 -13 -4 -65 -14 -114 -22 -115 -15 -293 21 -542 41 -276 27
-400 -49 -446 -90 -55 -169 18 -213 196 -25 104 -25 428 1 545 49 224 149 397
225 388 19 -2 27 -10 29 -27z m1208 -80 c85 -39 154 -135 154 -216 0 -82 -65
-176 -152 -219 -60 -30 -96 -32 -163 -9 -94 32 -184 158 -156 220 11 25 14 25
77 19 60 -6 66 -5 90 19 24 24 25 31 18 73 -11 71 -8 95 16 114 28 23 64 22
116 -1z"/>
</g>
</svg>
