<?xml version="1.0" standalone="no"?>
<!DOCTYPE svg PUBLIC "-//W3C//DTD SVG 20010904//EN"
 "http://www.w3.org/TR/2001/REC-SVG-20010904/DTD/svg10.dtd">
<svg version="1.0" xmlns="http://www.w3.org/2000/svg"
 width="470.000000pt" height="490.000000pt" viewBox="0 0 470.000000 490.000000"
 preserveAspectRatio="xMidYMid meet">
<metadata>
Created by potrace 1.11, written by Peter Selinger 2001-2013
</metadata>
<g transform="translate(0.000000,490.000000) scale(0.100000,-0.100000)"
fill="#000000" stroke="none">
<path d="M1400 4060 c-99 -12 -187 -38 -270 -78 -145 -70 -275 -234 -309 -387
-15 -70 -41 -334 -41 -420 0 -86 29 -207 67 -278 15 -29 63 -88 108 -132 148
-148 330 -219 560 -217 338 2 587 171 660 447 8 33 23 152 32 263 20 246 13
325 -42 439 -115 243 -452 403 -765 363z m214 -380 c99 -38 154 -114 171 -241
9 -64 -11 -256 -36 -335 -48 -154 -201 -230 -352 -174 -67 25 -122 77 -153
144 -20 42 -24 67 -24 146 0 236 40 365 134 428 84 56 167 66 260 32z"/>
<path d="M3181 3908 c-99 -17 -141 -64 -383 -423 -96 -143 -239 -354 -318
-470 -79 -115 -221 -325 -315 -465 -183 -273 -322 -479 -643 -952 -252 -373
-253 -374 -259 -445 -4 -48 -1 -66 19 -103 28 -51 102 -112 158 -129 98 -29
178 -4 255 81 28 30 215 299 416 599 202 299 403 598 449 664 261 382 876
1306 891 1340 10 22 19 62 19 88 0 133 -144 241 -289 215z"/>
<path d="M3080 2255 c-154 -34 -281 -103 -366 -199 -97 -108 -133 -206 -154
-422 -19 -189 -18 -359 2 -424 39 -125 154 -269 271 -339 191 -113 469 -152
662 -91 236 75 378 210 429 412 46 180 63 502 33 615 -55 206 -206 347 -457
428 -72 23 -106 28 -220 31 -93 3 -155 -1 -200 -11z m307 -377 c114 -53 153
-132 153 -302 -1 -214 -40 -337 -128 -401 -109 -79 -263 -70 -357 22 -76 73
-87 143 -65 388 8 92 15 121 43 175 34 68 92 118 161 140 46 14 139 4 193 -22z"/>
</g>
</svg>
