<?xml version="1.0" standalone="no"?>
<!DOCTYPE svg PUBLIC "-//W3C//DTD SVG 20010904//EN"
 "http://www.w3.org/TR/2001/REC-SVG-20010904/DTD/svg10.dtd">
<svg version="1.0" xmlns="http://www.w3.org/2000/svg"
 width="230.000000pt" height="230.000000pt" viewBox="0 0 230.000000 230.000000"
 preserveAspectRatio="xMidYMid meet">
<metadata>
Created by potrace 1.11, written by Peter Selinger 2001-2013
</metadata>
<g transform="translate(0.000000,230.000000) scale(0.100000,-0.100000)"
fill="#000000" stroke="none">
<path d="M1080 1670 l0 -180 70 0 70 0 0 180 0 180 -70 0 -70 0 0 -180z"/>
<path d="M602 1708 c-28 -18 -52 -35 -52 -38 0 -11 182 -295 190 -298 6 -2 34
12 64 30 l54 34 -93 149 c-52 82 -97 151 -102 152 -4 2 -32 -12 -61 -29z"/>
<path d="M1536 1588 c-53 -83 -95 -152 -93 -153 1 -1 28 -18 59 -38 l57 -36
97 155 c53 85 95 156 93 158 -12 11 -104 66 -110 66 -4 0 -50 -68 -103 -152z"/>
<path d="M915 1658 c-27 -5 -54 -13 -59 -18 -8 -8 21 -168 33 -182 5 -6 120
18 129 27 8 7 -33 185 -42 184 -6 -1 -33 -6 -61 -11z"/>
<path d="M1316 1649 c-3 -8 -14 -48 -24 -90 l-19 -76 66 -16 c36 -8 67 -14 69
-12 4 3 42 163 42 174 0 5 -15 11 -32 14 -18 3 -48 9 -65 13 -24 5 -34 3 -37
-7z"/>
<path d="M523 1405 c-21 -25 -38 -50 -38 -54 0 -4 29 -33 65 -64 l65 -56 28
27 c16 15 37 39 47 53 l19 26 -65 54 c-36 30 -69 55 -74 57 -4 2 -25 -18 -47
-43z"/>
<path d="M1658 1393 c-74 -62 -73 -55 -10 -127 l33 -38 62 53 c34 29 66 56 71
60 8 7 -69 109 -82 109 -4 0 -37 -26 -74 -57z"/>
<path d="M976 1424 c-165 -40 -308 -171 -379 -346 -20 -50 -21 -74 -25 -390
l-3 -338 580 0 581 0 0 316 c0 341 -4 371 -58 479 -72 144 -210 250 -370 284
-72 15 -254 12 -326 -5z"/>
<path d="M245 1298 c-14 -29 -25 -58 -25 -64 0 -10 296 -154 317 -154 13 0 65
112 56 120 -9 9 -309 150 -318 150 -3 0 -17 -24 -30 -52z"/>
<path d="M1865 1279 c-82 -39 -154 -74 -158 -78 -4 -4 5 -35 21 -68 l28 -60
162 75 c89 41 162 80 162 86 0 18 -48 116 -57 116 -4 0 -75 -32 -158 -71z"/>
<path d="M346 1051 c-3 -15 -8 -47 -11 -73 -6 -45 -5 -48 17 -48 13 -1 41 -4
63 -7 78 -13 108 -10 110 12 1 11 5 40 9 65 l8 45 -96 16 -95 15 -5 -25z"/>
<path d="M1885 1064 c-33 -7 -75 -13 -94 -14 -32 0 -33 -1 -27 -31 3 -17 6
-43 6 -58 0 -51 8 -54 110 -40 l92 13 -7 41 c-8 58 -16 99 -18 101 -1 0 -29
-5 -62 -12z"/>
<path d="M150 810 l0 -70 180 0 180 0 0 70 0 70 -180 0 -180 0 0 -70z"/>
<path d="M1790 810 l0 -70 180 0 180 0 0 70 0 70 -180 0 -180 0 0 -70z"/>
<path d="M320 630 l0 -70 95 0 95 0 0 70 0 70 -95 0 -95 0 0 -70z"/>
<path d="M1790 630 l0 -70 95 0 95 0 0 70 0 70 -95 0 -95 0 0 -70z"/>
<path d="M150 440 l0 -70 180 0 180 0 0 70 0 70 -180 0 -180 0 0 -70z"/>
<path d="M1790 440 l0 -70 180 0 180 0 0 70 0 70 -180 0 -180 0 0 -70z"/>
</g>
</svg>
