<?xml version="1.0" standalone="no"?>
<!DOCTYPE svg PUBLIC "-//W3C//DTD SVG 20010904//EN"
 "http://www.w3.org/TR/2001/REC-SVG-20010904/DTD/svg10.dtd">
<svg version="1.0" xmlns="http://www.w3.org/2000/svg"
 width="512.000000pt" height="512.000000pt" viewBox="0 0 512.000000 512.000000"
 preserveAspectRatio="xMidYMid meet">
<metadata>
Created by potrace 1.11, written by Peter Selinger 2001-2013
</metadata>
<g transform="translate(0.000000,512.000000) scale(0.100000,-0.100000)"
fill="#000000" stroke="none">
<path d="M2170 4983 c-22 -11 -55 -46 -87 -93 -124 -179 -154 -194 -327 -165
-121 20 -166 21 -206 2 -31 -15 -66 -81 -80 -156 -29 -147 -58 -204 -121 -236
-15 -8 -72 -24 -126 -36 -201 -44 -226 -82 -188 -282 33 -171 18 -207 -135
-317 -78 -56 -110 -86 -123 -114 -29 -62 -23 -80 94 -265 30 -48 34 -62 34
-120 0 -64 -2 -69 -61 -161 -118 -182 -112 -217 58 -338 144 -103 161 -137
138 -277 -7 -44 -15 -111 -17 -148 l-5 -68 41 -39 c34 -32 53 -41 118 -55 146
-31 181 -44 215 -79 38 -40 48 -64 78 -200 37 -166 84 -195 261 -162 192 36
225 21 344 -151 85 -124 151 -144 258 -78 31 19 83 51 114 70 47 29 66 35 113
35 47 0 66 -6 113 -35 31 -19 83 -51 114 -70 109 -67 171 -48 258 78 118 172
154 188 346 151 175 -33 222 -4 259 162 31 143 37 157 77 198 39 38 69 50 218
81 68 15 85 23 117 55 34 34 38 43 38 88 0 27 -7 87 -16 133 -31 163 -12 207
133 310 168 119 176 158 69 324 -29 44 -58 95 -65 113 -21 51 -9 123 29 185
116 182 123 203 94 264 -14 27 -49 59 -124 114 -153 110 -168 145 -135 316 38
199 11 241 -189 282 -105 22 -140 37 -172 73 -33 36 -50 77 -64 153 -16 89
-45 167 -70 190 -29 27 -102 30 -226 10 -172 -28 -207 -11 -321 157 -63 92
-91 113 -153 113 -39 0 -60 -9 -136 -56 -123 -78 -147 -89 -194 -89 -47 0 -83
16 -197 89 -94 61 -140 71 -193 44z m554 -518 c140 -15 340 -84 480 -166 264
-156 469 -406 559 -684 45 -136 57 -205 64 -350 13 -304 -65 -570 -238 -810
-170 -236 -428 -412 -714 -486 -106 -28 -139 -32 -280 -35 -226 -4 -374 25
-564 113 -142 65 -253 144 -371 262 -189 190 -302 400 -351 654 -24 123 -26
339 -4 458 75 402 334 745 697 922 233 113 449 149 722 122z"/>
<path d="M2375 4226 c-349 -67 -646 -307 -776 -627 -181 -444 -39 -948 351
-1239 73 -55 237 -134 329 -159 122 -34 265 -46 385 -32 57 6 137 21 177 32
92 25 256 104 329 159 288 215 447 551 427 899 -28 455 -327 825 -769 947
-115 32 -340 42 -453 20z m234 -268 c12 -13 60 -106 107 -208 47 -102 89 -189
94 -194 5 -5 100 -19 212 -32 112 -13 218 -31 235 -39 35 -15 49 -49 39 -87
-3 -13 -79 -90 -169 -173 l-163 -150 45 -223 44 -223 -20 -26 c-10 -15 -32
-31 -47 -36 -24 -8 -50 4 -227 102 l-199 112 -199 -112 c-177 -98 -203 -110
-227 -102 -15 5 -37 21 -48 36 l-19 26 42 208 c23 114 41 217 40 228 0 12 -61
75 -160 165 -88 80 -162 155 -165 168 -10 38 4 72 39 87 17 8 123 26 235 39
112 13 207 27 212 32 5 5 47 92 94 194 47 102 95 195 107 208 12 12 33 22 49
22 16 0 37 -10 49 -22z"/>
<path d="M1751 1444 c-36 -8 -65 -15 -67 -17 -4 -5 -233 -1121 -230 -1124 2
-2 85 17 186 43 l182 46 47 -44 c25 -23 87 -83 138 -132 51 -50 94 -88 96 -85
2 2 51 239 109 527 l105 523 -56 -7 c-145 -16 -272 60 -386 231 -20 30 -41 55
-48 54 -7 -1 -41 -7 -76 -15z"/>
<path d="M3232 1388 c-66 -97 -124 -151 -197 -185 -51 -23 -74 -27 -146 -27
l-86 0 104 -511 c57 -280 106 -516 109 -524 3 -10 36 16 107 85 56 55 118 114
138 132 l36 33 183 -45 c101 -26 185 -45 186 -43 2 2 -39 205 -90 452 -51 248
-103 500 -116 562 l-23 112 -56 11 c-31 7 -66 14 -78 17 -17 4 -30 -8 -71 -69z"/>
</g>
</svg>
