<?xml version="1.0" standalone="no"?>
<!DOCTYPE svg PUBLIC "-//W3C//DTD SVG 20010904//EN"
 "http://www.w3.org/TR/2001/REC-SVG-20010904/DTD/svg10.dtd">
<svg version="1.0" xmlns="http://www.w3.org/2000/svg"
 width="500.000000pt" height="500.000000pt" viewBox="0 0 500.000000 500.000000"
 preserveAspectRatio="xMidYMid meet">
<metadata>
Created by potrace 1.11, written by Peter Selinger 2001-2013
</metadata>
<g transform="translate(0.000000,500.000000) scale(0.100000,-0.100000)"
fill="#000000" stroke="none">
<path d="M2429 3826 c-46 -16 -14 7 -639 -460 -294 -220 -611 -457 -705 -526
-191 -142 -207 -158 -207 -197 0 -28 32 -63 59 -63 28 0 80 35 351 238 151
114 293 220 316 236 23 16 92 68 155 115 62 47 159 120 216 161 57 41 176 130
265 198 188 144 236 170 289 153 20 -6 234 -159 487 -348 247 -186 535 -401
639 -478 104 -77 230 -170 280 -207 49 -38 100 -68 113 -68 48 0 80 71 49 111
-7 8 -103 86 -214 173 -111 86 -211 168 -222 183 -20 24 -21 39 -21 218 0 183
-1 194 -23 226 -33 49 -79 61 -217 57 -135 -4 -159 -14 -192 -83 -38 -79 -37
-79 -247 79 -402 303 -431 318 -532 282z"/>
<path d="M2425 3311 c-39 -18 -82 -50 -631 -466 -152 -115 -306 -232 -342
-260 -37 -27 -77 -66 -90 -84 l-23 -35 3 -515 3 -516 23 -43 c34 -63 89 -120
146 -150 l51 -27 258 0 c244 0 259 1 273 19 11 16 14 85 14 380 0 412 0 409
84 483 61 54 103 63 294 63 216 0 269 -20 325 -125 21 -39 22 -53 25 -400 1
-198 4 -369 7 -381 9 -39 43 -44 294 -44 266 0 298 5 386 64 43 28 60 48 87
103 l33 68 3 505 c3 580 9 541 -93 623 -33 27 -172 133 -310 237 -137 103
-338 254 -445 335 -107 81 -213 156 -235 166 -51 23 -89 23 -140 0z"/>
</g>
</svg>
